# Blender v2.92.0 OBJ File: 'lowpoly_island.blend'
# www.blender.org
mtllib island.mtl
o 아이코스피어
v 1.314096 1.363892 3.935104
v -3.664849 1.366993 2.417326
v -3.115607 1.091020 -2.086251
v 1.286476 1.060754 -4.156613
v 3.987673 1.336343 -0.087081
v -0.662132 2.216058 0.072529
v 4.581407 0.000000 1.488566
v 4.581407 0.000000 -1.488566
v -0.037971 -0.037631 4.806351
v 3.205936 0.000627 3.936407
v -4.770138 0.032919 1.371815
v -3.303903 -0.004620 3.928841
v -2.825049 -0.007468 -3.594532
v -4.433722 -0.006724 -1.887856
v 2.831463 0.000000 -3.897171
v -0.001364 -0.001115 -4.818415
v 3.116049 1.597587 2.330873
v -1.218077 1.584197 3.734298
v -3.785045 1.558882 0.166454
v -1.348707 1.571995 -3.789594
v 3.167931 1.604742 -2.491462
v 0.739703 2.010925 2.390357
v 2.492107 2.004913 0.044492
v -2.019996 2.006777 1.454432
v -1.846771 1.955956 -1.250610
v 0.773904 1.934483 -2.419292
v -5.725037 -0.004090 -3.091118
v -7.315398 -0.004090 -3.108797
v -8.102989 -0.004090 -4.742839
v -6.793301 -0.004090 -6.065032
v -5.056840 -0.004090 -5.003904
v -6.244209 0.407051 -3.478094
v -7.488797 0.494135 -3.882491
v -7.325271 0.556607 -5.191121
v -6.244209 0.556607 -5.481512
v -5.575594 0.478022 -4.536806
v -6.588200 0.686800 -4.536806
v -7.857449 -0.004090 -3.700738
v -7.666870 -0.004090 -5.507955
v -5.618805 -0.004090 -5.705781
v -5.188008 -0.004090 -4.045427
v -6.517728 -0.004090 -2.844925
vt 0.802556 0.092265
vt 0.711647 0.092265
vt 0.757101 0.170995
vt 0.984375 0.092265
vt 0.893466 0.092265
vt 0.938920 0.170995
vt 0.257102 0.092265
vt 0.166193 0.092265
vt 0.211648 0.170995
vt 0.438920 0.092265
vt 0.348011 0.092265
vt 0.393465 0.170995
vt 0.620738 0.092265
vt 0.529829 0.092265
vt 0.575284 0.170995
vt 0.484375 0.170995
vt 0.529829 0.249726
vt 0.302557 0.170995
vt 0.348011 0.249726
vt 0.120738 0.170995
vt 0.166193 0.249726
vt 0.075284 0.092265
vt 0.848010 0.170995
vt 0.893465 0.249726
vt 0.666193 0.170995
vt 0.711647 0.249726
vt 0.575284 0.013535
vt 0.484375 0.013535
vt 0.393465 0.013535
vt 0.302557 0.013535
vt 0.211648 0.013535
vt 0.120738 0.013535
vt 0.938920 0.013535
vt 0.848010 0.013535
vt 0.757101 0.013535
vt 0.666193 0.013535
vt 0.029829 0.013535
vt 0.727272 0.634023
vt 0.364775 0.634023
vt 0.000000 0.634023
vt 0.084584 0.634023
vt 0.181818 0.634023
vt 0.272943 0.634023
vt 0.363636 0.634023
vt 0.467181 0.634023
vt 0.545454 0.634023
vt 0.636561 0.634023
vt 0.636363 0.791484
vt 0.909090 0.634023
vt 0.817896 0.634023
vt 0.818181 0.791484
vt 0.090909 0.791484
vt 0.272727 0.791484
vt 0.454545 0.791484
vt 1.000000 0.791484
vt 0.727272 0.948945
vt 0.909090 0.948945
vt 0.181818 0.948945
vt 0.363636 0.948945
vt 0.545454 0.948945
vn 0.1699 0.9299 0.3263
vn -0.2192 0.9426 0.2518
vn -0.3958 0.8686 -0.2980
vn 0.1164 0.9007 -0.4186
vn 0.4052 0.9135 -0.0362
vn 0.0659 0.9950 -0.0744
vn 0.1319 0.9840 -0.1201
vn 0.1114 0.9006 -0.4201
vn -0.0561 0.9880 -0.1440
vn -0.0639 0.9848 -0.1615
vn -0.4471 0.8673 -0.2189
vn -0.1821 0.9828 -0.0301
vn -0.2234 0.9742 -0.0326
vn -0.3109 0.9455 0.0972
vn -0.0394 0.9930 0.1117
vn -0.0713 0.9760 0.2060
vn 0.0514 0.9278 0.3695
vn 0.0671 0.9966 0.0476
vn 0.1731 0.9767 0.1268
vn 0.4113 0.9102 0.0499
vn 0.7947 0.5705 -0.2073
vn 0.7647 0.3264 -0.5556
vn 0.4765 0.5207 -0.7084
vn -0.0125 0.5398 -0.8417
vn -0.3855 0.2506 -0.8880
vn -0.6536 0.5463 -0.5238
vn -0.6325 0.6992 -0.3332
vn -0.8690 0.4855 -0.0956
vn -0.8013 0.5909 0.0932
vn -0.4128 0.6233 0.6642
vn -0.2324 0.4130 0.8806
vn -0.0196 0.5414 0.8405
vn 0.4619 0.6416 0.6123
vn 0.7667 0.4761 0.4307
vn 0.7735 0.5964 0.2144
vn 0.3021 0.2127 -0.9292
vn -0.0008 -1.0000 -0.0013
vn -0.5821 0.5998 -0.5490
vn -0.8232 0.3085 0.4766
vn 0.2404 0.3345 0.9112
vn 0.9139 0.4060 0.0000
vn 0.0000 -1.0000 0.0000
vn 0.5578 0.7683 0.3139
vn -0.1613 0.8581 0.4875
vn -0.7586 0.6265 0.1787
vn -0.4190 0.6266 -0.6571
vn 0.5197 0.7461 -0.4161
vn 0.4259 0.8442 0.3255
vn -0.1234 0.8215 0.5567
vn -0.5982 0.8005 -0.0365
vn -0.1613 0.7831 -0.6006
vn 0.5009 0.8167 -0.2866
vn 0.1983 0.9616 0.1897
vn -0.0171 0.9653 0.2606
vn -0.1934 0.9809 0.0227
vn -0.0405 0.9877 -0.1509
vn 0.2016 0.9776 -0.0613
vn -0.5781 0.6209 0.5294
vn -0.6754 0.6290 -0.3850
vn 0.2386 0.5782 -0.7802
vn 0.7238 0.6829 0.0991
vn 0.1832 0.7865 0.5898
usemtl 매테리얼
s off
f 1/1/1 17/2/1 22/3/1
f 2/4/2 18/5/2 24/6/2
f 3/7/3 19/8/3 25/9/3
f 4/10/4 20/11/4 26/12/4
f 5/13/5 21/14/5 23/15/5
f 23/15/6 26/16/6 6/17/6
f 23/15/7 21/14/7 26/16/7
f 21/14/8 4/10/8 26/16/8
f 26/12/9 25/18/9 6/19/9
f 26/12/10 20/11/10 25/18/10
f 20/11/11 3/7/11 25/18/11
f 25/9/12 24/20/12 6/21/12
f 25/9/13 19/8/13 24/20/13
f 19/8/14 2/22/14 24/20/14
f 24/6/15 22/23/15 6/24/15
f 24/6/16 18/5/16 22/23/16
f 18/5/17 1/1/17 22/23/17
f 22/3/18 23/25/18 6/26/18
f 22/3/19 17/2/19 23/25/19
f 17/2/20 5/13/20 23/25/20
f 8/27/21 21/14/21 5/13/21
f 8/27/22 15/28/22 21/14/22
f 15/28/23 4/10/23 21/14/23
f 16/29/24 20/11/24 4/10/24
f 16/29/25 13/30/25 20/11/25
f 13/30/26 3/7/26 20/11/26
f 14/31/27 19/8/27 3/7/27
f 14/31/28 11/32/28 19/8/28
f 11/32/29 2/22/29 19/8/29
f 12/33/30 18/5/30 2/4/30
f 12/33/31 9/34/31 18/5/31
f 9/34/32 1/1/32 18/5/32
f 10/35/33 17/2/33 1/1/33
f 10/35/34 7/36/34 17/2/34
f 7/36/35 5/13/35 17/2/35
f 15/28/36 16/29/36 4/10/36
f 8/27/37 7/36/37 10/35/37 9/34/37 12/33/37 11/32/37 14/31/37 13/30/37 16/29/37 15/28/37
f 13/30/38 14/31/38 3/7/38
f 11/32/39 12/37/39 2/22/39
f 9/34/40 10/35/40 1/1/40
f 7/36/41 8/27/41 5/13/41
f 27/38/42 42/39/42 28/40/42 38/41/42 29/42/42 39/43/42 30/44/42 40/45/42 31/46/42 41/47/42
f 27/38/43 41/47/43 36/48/43
f 28/49/44 42/50/44 32/51/44
f 29/42/45 38/41/45 33/52/45
f 30/44/46 39/43/46 34/53/46
f 31/46/47 40/45/47 35/54/47
f 27/38/48 36/48/48 32/51/48
f 28/49/49 32/51/49 33/55/49
f 29/42/50 33/52/50 34/53/50
f 30/44/51 34/53/51 35/54/51
f 31/46/52 35/54/52 36/48/52
f 32/51/53 36/48/53 37/56/53
f 33/55/54 32/51/54 37/57/54
f 34/53/55 33/52/55 37/58/55
f 35/54/56 34/53/56 37/59/56
f 36/48/57 35/54/57 37/60/57
f 33/52/58 38/41/58 28/40/58
f 34/53/59 39/43/59 29/42/59
f 35/54/60 40/45/60 30/44/60
f 36/48/61 41/47/61 31/46/61
f 32/51/62 42/50/62 27/38/62
